<svg width="34" height="37" viewBox="0 0 34 37" fill="none" xmlns="http://www.w3.org/2000/svg">
<path d="M33.2656 34.1956L21.5281 15.7494L33.11 3.00875C33.372 2.71348 33.507 2.32687 33.4858 1.93273C33.4645 1.53859 33.2888 1.16869 32.9967 0.90323C32.7046 0.637769 32.3197 0.49814 31.9253 0.514617C31.5309 0.531094 31.159 0.702348 30.89 0.99125L19.8575 13.1262L12.2656 1.19563C12.1303 0.98254 11.9433 0.80707 11.7221 0.685471C11.5008 0.563872 11.2525 0.500078 11 0.5H2.00001C1.73106 0.499869 1.46703 0.572051 1.23555 0.708987C1.00407 0.845923 0.813671 1.04258 0.684281 1.27835C0.554891 1.51413 0.491272 1.78036 0.500087 2.04916C0.508902 2.31797 0.589826 2.57946 0.734386 2.80625L12.4719 21.2506L0.890011 34.0006C0.754761 34.1459 0.649692 34.3166 0.580894 34.5028C0.512096 34.689 0.480937 34.887 0.489223 35.0853C0.497509 35.2836 0.545076 35.4783 0.629165 35.6581C0.713255 35.8379 0.832195 35.9993 0.979093 36.1328C1.12599 36.2663 1.29792 36.3693 1.48493 36.4358C1.67193 36.5024 1.87029 36.5312 2.0685 36.5205C2.26671 36.5099 2.46083 36.46 2.63961 36.3737C2.81839 36.2875 2.97828 36.1666 3.11001 36.0181L14.1425 23.8831L21.7344 35.8138C21.8709 36.0251 22.0583 36.1987 22.2795 36.3186C22.5007 36.4386 22.7484 36.5009 23 36.5H32C32.2687 36.4999 32.5324 36.4277 32.7636 36.2908C32.9948 36.154 33.185 35.9576 33.3143 35.7221C33.4436 35.4866 33.5074 35.2207 33.4988 34.9522C33.4902 34.6837 33.4097 34.4224 33.2656 34.1956ZM23.8231 33.5L4.73189 3.5H10.1694L29.2681 33.5H23.8231Z" fill="#020817"/>
</svg>
